<svg xmlns="http://www.w3.org/2000/svg" viewBox="0 0 1560 220" fill="none">
  <path d="M17.64 216V4.8H173.88V52.08H71.28V93.36H166.32V140.64H71.28V216H17.64Z" fill="black"/>
  <path d="M237.466 216L188.746 123.12L231.946 69.84L310.186 4.8H379.066L294.346 82.32L350.266 179.52L382.906 216H313.306L237.466 216Z" fill="black"/>
  <path d="M539.281 216V60.48H417.761V4.8H708.401V60.48H586.881V216H539.281Z" fill="black"/>
  <path d="M721.656 216V4.8H767.736V91.68C775.896 80.88 786.936 72.48 800.856 66.48C814.776 60.48 829.656 57.48 845.496 57.48C862.296 57.48 877.176 60.96 890.136 67.92C903.096 74.88 913.176 85.08 920.376 98.52C927.576 111.96 931.176 128.04 931.176 146.76V216H885.096V154.2C885.096 138.12 881.256 125.76 873.576 117.12C865.896 108.48 855.216 104.16 841.536 104.16C827.616 104.16 816.576 108.6 808.416 117.48C800.256 126.36 796.176 138.84 796.176 154.92V216H721.656Z" fill="black"/>
  <path d="M1081.47 220.8C1061.79 220.8 1043.79 216.48 1027.47 207.84C1011.15 199.2 998.232 186.84 988.712 170.76C979.192 154.68 974.432 135.72 974.432 113.88C974.432 92.04 979.192 73.08 988.712 57C998.232 40.92 1011.15 28.56 1027.47 19.92C1043.79 11.28 1061.79 6.96 1081.47 6.96C1101.15 6.96 1119.15 11.28 1135.47 19.92C1151.79 28.56 1164.71 40.92 1174.23 57C1183.75 73.08 1188.51 92.04 1188.51 113.88C1188.51 135.72 1183.75 154.68 1174.23 170.76C1164.71 186.84 1151.79 199.2 1135.47 207.84C1119.15 216.48 1101.15 220.8 1081.47 220.8ZM1081.47 172.08C1094.19 172.08 1105.35 167.64 1114.95 158.76C1124.55 149.88 1129.35 137.04 1129.35 120.24V107.52C1129.35 90.72 1124.55 77.88 1114.95 69C1105.35 60.12 1094.19 55.68 1081.47 55.68C1068.75 55.68 1057.59 60.12 1047.99 69C1038.39 77.88 1033.59 90.72 1033.59 107.52V120.24C1033.59 137.04 1038.39 149.88 1047.99 158.76C1057.59 167.64 1068.75 172.08 1081.47 172.08Z" fill="black"/>
  <path d="M1202.93 216V60.48H1248.29V93.36C1255.97 80.4 1266.41 70.2 1279.61 62.76C1292.81 55.32 1307.21 51.6 1322.81 51.6C1339.37 51.6 1354.25 55.08 1367.45 62.04C1380.65 69 1391.09 79.2 1398.77 92.64C1406.45 106.08 1410.29 122.16 1410.29 140.88V216H1364.21V148.2C1364.21 132.12 1360.37 119.76 1352.69 111.12C1345.01 102.48 1334.33 98.16 1320.65 98.16C1306.49 98.16 1295.09 102.6 1286.45 111.48C1277.81 120.36 1273.49 132.84 1273.49 148.92V216H1202.93Z" fill="black"/>
  <path d="M1525.36 220.8C1504.24 220.8 1485.52 216.6 1469.2 208.2C1452.88 199.8 1440.16 187.68 1430.88 171.84C1421.6 156 1416.96 137.52 1416.96 116.4C1416.96 95.28 1421.6 76.8 1430.88 60.96C1440.16 45.12 1452.64 33 1468.32 24.6C1484 16.2 1501.84 12 1521.84 12C1540.08 12 1556.28 15.6 1570.44 22.8C1584.6 30 1595.88 40.32 1604.28 53.76C1612.68 67.2 1616.88 83.16 1616.88 101.64C1616.88 106.92 1616.52 111.96 1615.8 116.76H1474.8C1476.24 129.24 1481.16 138.84 1489.56 145.56C1497.96 152.28 1508.52 155.64 1521.24 155.64C1531.48 155.64 1540.32 153.48 1547.76 149.16C1555.2 144.84 1560.6 138.84 1564.08 131.16H1613.4C1608.84 147.24 1599.08 160.44 1584.12 170.76C1569.16 181.08 1549.84 186.24 1526.16 186.24L1525.36 220.8ZM1521.24 57.36C1509.24 57.36 1499.16 60.6 1491 67.08C1482.84 73.56 1477.68 82.44 1475.52 93.72H1565.04C1563.12 83.16 1558.08 74.52 1549.92 67.8C1541.76 61.08 1532.2 57.72 1521.24 57.72V57.36Z" fill="black"/>
  <circle cx="1530" cy="195" r="30" fill="#FF0000"/>
</svg>