<svg width="189" height="80" viewBox="0 0 189 80" fill="none" xmlns="http://www.w3.org/2000/svg">
<path d="M7.38088 6.59091V41.5H0.000201106V6.59091H7.38088ZM41.8038 6.59091V41.5H35.4288L20.2413 19.5284H19.9856V41.5H12.6049V6.59091H19.0822L34.1503 28.5455H34.4572V6.59091H41.8038ZM47.0533 41.5V6.59091H70.167V12.6761H54.434V20.9943H68.6329V27.0795H54.434V41.5H47.0533ZM81.6637 6.59091V41.5H74.283V6.59091H81.6637ZM116.087 6.59091V41.5H109.712L94.5241 19.5284H94.2684V41.5H86.8877V6.59091H93.365L108.433 28.5455H108.74V6.59091H116.087ZM128.717 6.59091V41.5H121.336V6.59091H128.717ZM132.611 12.6761V6.59091H161.282V12.6761H150.594V41.5H143.299V12.6761H132.611ZM165.155 41.5V6.59091H188.678V12.6761H172.536V20.9943H187.467V27.0795H172.536V35.4148H188.746V41.5H165.155Z" fill="black"/>
<g opacity="0.9">
<path d="M33.5754 73V59.9091H41.4248V61.3153H35.1606V65.7386H40.8367V67.1449H35.1606V73H33.5754ZM50.6856 59.9091V73H49.1004V59.9091H50.6856ZM69.2053 59.9091V73H67.6712L60.5376 62.7216H60.4098V73H58.8246V59.9091H60.3587L67.5178 70.2131H67.6456V59.9091H69.2053ZM77.8748 73H76.2129L81.0197 59.9091H82.656L87.4629 73H85.8009L81.889 61.9801H81.7867L77.8748 73ZM78.4884 67.8864H85.1873V69.2926H78.4884V67.8864ZM104.843 59.9091V73H103.309L96.1755 62.7216H96.0477V73H94.4625V59.9091H95.9966L103.156 70.2131H103.283V59.9091H104.843ZM123.51 64H121.925C121.831 63.544 121.667 63.1435 121.432 62.7983C121.202 62.4531 120.921 62.1634 120.589 61.929C120.261 61.6903 119.896 61.5114 119.496 61.392C119.095 61.2727 118.677 61.2131 118.243 61.2131C117.45 61.2131 116.732 61.4134 116.089 61.8139C115.449 62.2145 114.94 62.8047 114.561 63.5845C114.186 64.3643 113.998 65.321 113.998 66.4545C113.998 67.5881 114.186 68.5447 114.561 69.3246C114.94 70.1044 115.449 70.6946 116.089 71.0952C116.732 71.4957 117.45 71.696 118.243 71.696C118.677 71.696 119.095 71.6364 119.496 71.517C119.896 71.3977 120.261 71.2209 120.589 70.9865C120.921 70.7479 121.202 70.456 121.432 70.1108C121.667 69.7614 121.831 69.3608 121.925 68.9091H123.51C123.391 69.5781 123.173 70.1768 122.858 70.7053C122.543 71.2337 122.15 71.6832 121.682 72.054C121.213 72.4205 120.687 72.6996 120.103 72.8913C119.523 73.0831 118.903 73.179 118.243 73.179C117.126 73.179 116.133 72.9062 115.264 72.3608C114.395 71.8153 113.711 71.0398 113.212 70.0341C112.714 69.0284 112.464 67.8352 112.464 66.4545C112.464 65.0739 112.714 63.8807 113.212 62.875C113.711 61.8693 114.395 61.0938 115.264 60.5483C116.133 60.0028 117.126 59.7301 118.243 59.7301C118.903 59.7301 119.523 59.826 120.103 60.0178C120.687 60.2095 121.213 60.4908 121.682 60.8615C122.15 61.228 122.543 61.6754 122.858 62.2038C123.173 62.728 123.391 63.3267 123.51 64ZM131.032 73V59.9091H138.933V61.3153H132.617V65.7386H138.523V67.1449H132.617V71.5938H139.035V73H131.032ZM153.909 63.1818C153.833 62.5341 153.522 62.0312 152.976 61.6733C152.431 61.3153 151.762 61.1364 150.969 61.1364C150.39 61.1364 149.882 61.2301 149.448 61.4176C149.017 61.6051 148.681 61.8629 148.438 62.1911C148.199 62.5192 148.08 62.892 148.08 63.3097C148.08 63.6591 148.163 63.9595 148.329 64.2109C148.5 64.4581 148.717 64.6648 148.981 64.831C149.245 64.9929 149.522 65.1271 149.812 65.2337C150.102 65.3359 150.368 65.419 150.611 65.483L151.941 65.8409C152.282 65.9304 152.661 66.054 153.078 66.2116C153.5 66.3693 153.903 66.5845 154.287 66.8572C154.674 67.1257 154.994 67.4709 155.245 67.8928C155.497 68.3146 155.623 68.8324 155.623 69.446C155.623 70.1534 155.437 70.7926 155.066 71.3636C154.7 71.9347 154.163 72.3885 153.456 72.7251C152.752 73.0618 151.898 73.2301 150.892 73.2301C149.955 73.2301 149.143 73.0788 148.457 72.7763C147.775 72.4737 147.238 72.0518 146.846 71.5107C146.458 70.9695 146.239 70.3409 146.188 69.625H147.824C147.867 70.1193 148.033 70.5284 148.323 70.8523C148.617 71.1719 148.988 71.4105 149.435 71.5682C149.887 71.7216 150.373 71.7983 150.892 71.7983C151.498 71.7983 152.041 71.7003 152.522 71.5043C153.004 71.304 153.385 71.027 153.667 70.6733C153.948 70.3153 154.088 69.8977 154.088 69.4205C154.088 68.9858 153.967 68.6321 153.724 68.3594C153.481 68.0866 153.162 67.8651 152.765 67.6946C152.369 67.5241 151.941 67.375 151.48 67.2472L149.87 66.7869C148.847 66.4929 148.037 66.0732 147.441 65.5277C146.844 64.9822 146.546 64.2685 146.546 63.3864C146.546 62.6534 146.744 62.0142 147.14 61.4688C147.541 60.919 148.078 60.4929 148.751 60.1903C149.429 59.8835 150.185 59.7301 151.02 59.7301C151.864 59.7301 152.614 59.8814 153.27 60.1839C153.927 60.4822 154.446 60.8913 154.83 61.4112C155.218 61.9311 155.422 62.5213 155.444 63.1818H153.909Z" fill="black"/>
</g>
</svg>
