<?xml version="1.0" encoding="utf-8"?>
<!-- Generator: Adobe Illustrator 27.2.0, SVG Export Plug-In . SVG Version: 6.00 Build 0)  -->
<svg version="1.1" id="Layer_1" xmlns="http://www.w3.org/2000/svg" xmlns:xlink="http://www.w3.org/1999/xlink" x="0px" y="0px"
	 viewBox="0 0 517 100.5" style="enable-background:new 0 0 517 100.5;" xml:space="preserve">
<style type="text/css">
	.st0{fill:#1A1237;}
	.st1{fill:#00F2B2;}
	.st2{fill:#1D1D1B;}
	.st3{fill:url(#SVGID_1_);}
	.st4{fill:url(#SVGID_00000039131021210325257670000001997882496298219447_);}
	.st5{fill:url(#SVGID_00000181802695525974467440000017785476053088582575_);}
	.st6{fill:url(#SVGID_00000090254991773739673880000015105960839779905689_);}
</style>
<g>
	<path class="st0" d="M167.6,18.2c-2.5,0-4.6-0.9-6.3-2.6c-1.7-1.7-2.5-3.8-2.5-6.2c0-2.4,0.8-4.5,2.5-6.2c1.7-1.7,3.8-2.6,6.3-2.6
		c2.4,0,4.5,0.9,6.2,2.6c1.7,1.7,2.5,3.8,2.5,6.2c0,2.4-0.8,4.5-2.5,6.2C172.1,17.3,170,18.2,167.6,18.2z M161,85.6V28h13v57.6H161z
		"/>
	<path class="st0" d="M197,35.8h0.7c1.7-2.7,4.2-5,7.3-6.9c3.2-1.8,6.8-2.8,10.7-2.8c7.3,0,12.7,2.2,16.3,6.5
		c3.6,4.3,5.4,10.1,5.4,17.3v35.6h-13V51.8c0-5-1.2-8.5-3.5-10.5c-2.3-2-5.3-3-9.1-3c-2.3,0-4.3,0.5-6,1.4c-1.7,0.9-3.2,2.2-4.5,3.8
		c-1.3,1.6-2.2,3.4-2.8,5.5c-0.6,2.1-0.9,4.2-0.9,6.5v30.1h-13V28H197V35.8z"/>
	<path class="st1" d="M265.3,85.6h-13v-46h-10.6V28h10.6v-6.9c0-3.2,0.5-6.1,1.5-8.6c1-2.5,2.4-4.7,4.3-6.5c1.8-1.8,4-3.1,6.6-4.1
		c2.5-0.9,5.3-1.4,8.3-1.4c1.8,0,3.3,0.1,4.6,0.4c1.3,0.3,2.4,0.6,3.5,1l-2,12c-0.7-0.3-1.5-0.6-2.3-0.8c-0.8-0.2-1.9-0.3-3.2-0.3
		c-2.3,0-4.2,0.8-5.8,2.3c-1.6,1.6-2.4,3.8-2.4,6.8v6h36.9v57.6h-13v-46h-23.8V85.6z M295.7,17.8c-2.5,0-4.6-0.9-6.3-2.6
		c-1.7-1.7-2.5-3.8-2.5-6.2c0-2.4,0.8-4.5,2.5-6.2c1.7-1.7,3.8-2.6,6.3-2.6c2.4,0,4.5,0.9,6.2,2.6c1.7,1.7,2.5,3.8,2.5,6.2
		c0,2.4-0.8,4.5-2.5,6.2C300.2,17,298.2,17.8,295.7,17.8z"/>
	<path class="st1" d="M325.1,35.8h0.7c1.7-2.7,4.2-5,7.3-6.9c3.2-1.8,6.8-2.8,10.7-2.8c7.3,0,12.7,2.2,16.3,6.5
		c3.6,4.3,5.4,10.1,5.4,17.3v35.6h-13V51.8c0-5-1.2-8.5-3.5-10.5c-2.3-2-5.3-3-9.1-3c-2.3,0-4.3,0.5-6,1.4c-1.7,0.9-3.2,2.2-4.5,3.8
		c-1.3,1.6-2.2,3.4-2.8,5.5c-0.6,2.1-0.9,4.2-0.9,6.5v30.1h-13V28h12.3V35.8z"/>
	<path class="st2" d="M382.3,18.2c-2.5,0-4.6-0.9-6.3-2.6c-1.7-1.7-2.5-3.8-2.5-6.2c0-2.4,0.8-4.5,2.5-6.2c1.7-1.7,3.8-2.6,6.3-2.6
		c2.4,0,4.5,0.9,6.2,2.6c1.7,1.7,2.5,3.8,2.5,6.2c0,2.4-0.8,4.5-2.5,6.2C386.8,17.3,384.7,18.2,382.3,18.2z M375.7,85.6V28h13v57.6
		H375.7z"/>
	<path class="st2" d="M405.1,39.5H395V28h10.1V10.4h13V28h14.2v11.5h-14.2v26.3c0,1.4,0.2,2.8,0.5,4c0.3,1.2,0.8,2.2,1.4,3
		c1.3,1.5,3,2.3,5,2.3c1.3,0,2.2-0.1,2.9-0.3c0.7-0.2,1.4-0.5,2.2-0.9l4,11.5c-1.6,0.6-3.4,1.1-5.2,1.5c-1.8,0.4-3.8,0.5-6.1,0.5
		c-2.7,0-5.2-0.4-7.3-1.3s-4-2.1-5.5-3.6c-3.4-3.4-5-8.1-5-14V39.5z"/>
	<path class="st2" d="M492.3,71.8c-2.4,4.5-5.9,8.2-10.3,11.2c-4.5,3-9.9,4.5-16.4,4.5c-4.3,0-8.3-0.8-11.9-2.3
		c-3.6-1.5-6.8-3.7-9.5-6.4c-2.7-2.7-4.7-6-6.2-9.7c-1.5-3.7-2.2-7.8-2.2-12.3c0-4.1,0.7-8.1,2.1-11.8c1.4-3.7,3.4-7,5.9-9.7
		c2.5-2.8,5.6-5,9.2-6.6c3.6-1.6,7.6-2.5,12-2.5c4.5,0,8.4,0.7,11.9,2.2c3.5,1.5,6.4,3.6,8.9,6.2c2.4,2.7,4.3,5.9,5.6,9.6
		c1.3,3.8,1.9,7.9,1.9,12.3c0,0.4,0,0.7,0,1.1c-0.1,0.4-0.1,0.7-0.1,1.1c-0.1,0.3-0.1,0.6-0.1,0.9h-44.3c0.2,2.7,0.9,5.1,2,7.2
		c1.1,2,2.4,3.7,4.1,5.1c1.6,1.3,3.4,2.3,5.3,2.9c2,0.6,3.9,0.9,5.8,0.9c3.8,0,6.9-0.9,9.3-2.7c2.4-1.8,4.4-4,6-6.7L492.3,71.8z
		 M480.2,49.6c-0.2-1.2-0.5-2.5-1.1-3.9c-0.6-1.4-1.5-2.8-2.7-4c-1.2-1.2-2.8-2.2-4.7-3.1c-1.9-0.9-4.2-1.3-7-1.3
		c-3.8,0-7,1.1-9.7,3.3s-4.5,5.2-5.5,9H480.2z"/>
	<path class="st1" d="M507.7,85.6c-2.5,0-4.6-0.8-6.4-2.5c-1.8-1.7-2.6-3.7-2.6-6.2c0-2.4,0.9-4.5,2.6-6.2c1.8-1.7,3.9-2.6,6.4-2.6
		c2.5,0,4.7,0.9,6.5,2.6c1.8,1.7,2.7,3.8,2.7,6.2c0,2.4-0.9,4.5-2.7,6.2C512.4,84.7,510.2,85.6,507.7,85.6z"/>
</g>
<g>
	
		<linearGradient id="SVGID_1_" gradientUnits="userSpaceOnUse" x1="1203.5653" y1="-470.0971" x2="1203.5653" y2="-560.4973" gradientTransform="matrix(-1 0 0 -1 1237.2018 -464.5354)">
		<stop  offset="0" style="stop-color:#00B39A"/>
		<stop  offset="0.1493" style="stop-color:#00C2A0"/>
		<stop  offset="0.4791" style="stop-color:#00DCAA"/>
		<stop  offset="0.7732" style="stop-color:#00ECB0"/>
		<stop  offset="1" style="stop-color:#00F2B2"/>
	</linearGradient>
	<path class="st3" d="M44.9,50.8c0-16.7,9.1-31.3,22.6-39.1c-6.7-3.9-14.4-6.1-22.6-6.1C20,5.6-0.3,25.8-0.3,50.8
		C-0.3,75.7,20,96,44.9,96c8.2,0,15.9-2.2,22.6-6.1C54,82,44.9,67.5,44.9,50.8z"/>
	
		<linearGradient id="SVGID_00000000927117877749314290000012762539582851710609_" gradientUnits="userSpaceOnUse" x1="1135.7653" y1="-470.0971" x2="1135.7653" y2="-560.4973" gradientTransform="matrix(-1 0 0 -1 1237.2018 -464.5354)">
		<stop  offset="0" style="stop-color:#00F2B2"/>
		<stop  offset="0.2488" style="stop-color:#00EEB0"/>
		<stop  offset="0.5036" style="stop-color:#00E2AC"/>
		<stop  offset="0.7603" style="stop-color:#00CDA4"/>
		<stop  offset="1" style="stop-color:#00B39A"/>
	</linearGradient>
	<path style="fill:url(#SVGID_00000000927117877749314290000012762539582851710609_);" d="M90.1,5.6c-8.2,0-15.9,2.2-22.6,6.1
		C81,19.5,90.1,34,90.1,50.8c0,16.7-9.1,31.3-22.6,39.1c6.7,3.9,14.4,6.1,22.6,6.1c25,0,45.2-20.2,45.2-45.2
		C135.3,25.8,115.1,5.6,90.1,5.6z"/>
	
		<linearGradient id="SVGID_00000171679052321649259290000015219412756833284261_" gradientUnits="userSpaceOnUse" x1="1169.6654" y1="-470.0973" x2="1169.6654" y2="-560.4973" gradientTransform="matrix(-1 0 0 -1 1237.2018 -464.5354)">
		<stop  offset="0" style="stop-color:#00B39A"/>
		<stop  offset="0.1493" style="stop-color:#00C2A0"/>
		<stop  offset="0.4791" style="stop-color:#00DCAA"/>
		<stop  offset="0.7732" style="stop-color:#00ECB0"/>
		<stop  offset="1" style="stop-color:#00F2B2"/>
	</linearGradient>
	<path style="fill:url(#SVGID_00000171679052321649259290000015219412756833284261_);" d="M90.1,50.8c0-16.7-9.1-31.3-22.6-39.1
		C54,19.5,44.9,34,44.9,50.8c0,16.7,9.1,31.3,22.6,39.1C81,82,90.1,67.5,90.1,50.8z"/>
	
		<linearGradient id="SVGID_00000075863684735777293490000013735804423070418622_" gradientUnits="userSpaceOnUse" x1="1169.6654" y1="-470.0973" x2="1169.6654" y2="-560.4973" gradientTransform="matrix(-1 0 0 -1 1237.2018 -464.5354)">
		<stop  offset="0" style="stop-color:#00F2B2"/>
		<stop  offset="0.2488" style="stop-color:#00EEB0"/>
		<stop  offset="0.5036" style="stop-color:#00E2AC"/>
		<stop  offset="0.7603" style="stop-color:#00CDA4"/>
		<stop  offset="1" style="stop-color:#00B39A"/>
	</linearGradient>
	<path style="fill:url(#SVGID_00000075863684735777293490000013735804423070418622_);" d="M90.1,50.8c0-16.7-9.1-31.3-22.6-39.1
		C54,19.5,44.9,34,44.9,50.8c0,16.7,9.1,31.3,22.6,39.1C81,82,90.1,67.5,90.1,50.8z"/>
</g>
</svg>
